<mxfile host="app.diagrams.net" modified="2024-04-14T20:28:22.398Z" agent="Mozilla/5.0 (Macintosh; Intel Mac OS X 10_15_7) AppleWebKit/537.36 (KHTML, like Gecko) Chrome/123.0.0.0 Safari/537.36" version="24.2.2" etag="hOnqH0nrh0mz5jkaq3yj" type="github">
  <diagram name="Page-1" id="zgmj2bmdgb9iNsNrLwI2">
    <mxGraphModel>
      <root>
        <mxCell id="0" />
        <mxCell id="1" parent="0" />
      </root>
    </mxGraphModel>
  </diagram>
</mxfile>
